<svg viewBox="0 0 200 8.219" xmlns:xlink="http://www.w3.org/1999/xlink" xmlns="http://www.w3.org/2000/svg"><defs><linearGradient id="prefix__a"><stop stop-color="#d78dd2" offset="0"/><stop stop-color="#8fa9f0" offset="1"/></linearGradient><linearGradient id="prefix__b" x1="30.026" x2="508.27" y1="348.41" y2="348.41" gradientUnits="userSpaceOnUse" xlink:href="#prefix__a"/><linearGradient xlink:href="#prefix__a" id="prefix__c" gradientUnits="userSpaceOnUse" x1="30.026" y1="348.41" x2="508.27" y2="348.41"/></defs><path d="M30.026 357.92v-18.667h4.293l5.707 11.653 5.653-11.653h4.294v18.667h-3.6v-12.533l-4.934 9.92h-2.853l-4.96-9.92v12.533zm23.626 0v-13.44h3.6v13.44zm1.813-15.28q-.96 0-1.6-.56-.613-.587-.613-1.467 0-.88.613-1.44.64-.586 1.6-.586.987 0 1.6.586.64.56.64 1.44 0 .88-.64 1.467-.613.56-1.6.56zm5.414 15.28v-13.44h3.173l.267 2.187q.613-1.12 1.733-1.814 1.147-.693 2.72-.693 1.68 0 2.827.693 1.147.694 1.733 2.027.614 1.333.614 3.28v7.76h-3.574v-7.413q0-1.6-.693-2.454-.667-.853-2.08-.853-.907 0-1.627.427-.693.426-1.093 1.227-.4.773-.4 1.893v7.173zm22.907.32q-2.027 0-3.6-.853-1.547-.88-2.427-2.427-.853-1.573-.853-3.627 0-2.106.853-3.706.854-1.627 2.4-2.534 1.574-.933 3.627-.933 2 0 3.493.88 1.493.88 2.32 2.373.827 1.494.827 3.387v.613q0 .32-.053.667H79.466v-2.187h7.333q-.08-1.306-.933-2.053-.827-.747-2.08-.747-.907 0-1.68.427-.774.4-1.227 1.253-.427.854-.427 2.16v.774q0 1.093.4 1.92.427.8 1.174 1.253.746.427 1.733.427.987 0 1.627-.427.666-.427.986-1.093h3.68q-.373 1.253-1.253 2.266-.88 1.014-2.16 1.6-1.28.587-2.853.587zm16.106 0q-2.027 0-3.6-.907-1.573-.906-2.453-2.48-.88-1.573-.88-3.6 0-2.08.88-3.653.88-1.6 2.453-2.507 1.573-.933 3.6-.933 2.587 0 4.347 1.36 1.76 1.36 2.24 3.733h-3.814q-.24-.933-1.013-1.466-.747-.534-1.787-.534-.933 0-1.68.48-.72.454-1.146 1.36-.4.88-.4 2.107 0 .933.24 1.68.24.72.666 1.253.427.507 1.014.774.613.266 1.306.266.694 0 1.254-.24.586-.24.986-.666.4-.454.56-1.094h3.814q-.48 2.32-2.267 3.707-1.76 1.36-4.32 1.36zm9.678-.32v-13.44h3.2l.347 2.48q.48-.88 1.2-1.493.746-.614 1.68-.96.96-.347 2.106-.347v3.813h-1.226q-.8 0-1.494.187-.666.187-1.173.613-.507.4-.773 1.12-.266.72-.267 1.814v6.213zm15.44.32q-1.68 0-2.773-.533-1.094-.56-1.627-1.467-.507-.933-.507-2.053 0-1.227.614-2.16.64-.934 1.893-1.467 1.28-.533 3.2-.533h3.333q0-.987-.266-1.627-.267-.667-.827-.987-.56-.32-1.493-.32-1.014 0-1.734.454-.693.426-.853 1.333h-3.493q.133-1.44.933-2.48.827-1.067 2.16-1.653 1.36-.587 3.013-.587 1.894 0 3.28.64t2.134 1.84q.746 1.2.746 2.96v8.32h-3.04l-.4-2.053q-.293.533-.693.96-.4.426-.933.746t-1.2.48q-.667.187-1.467.187zm.853-2.773q.694 0 1.227-.24.56-.267.96-.694.4-.453.613-1.013.24-.587.32-1.253v-.027h-2.746q-.827 0-1.36.213-.507.187-.747.56-.24.374-.24.854 0 .533.24.88.24.346.693.533.454.187 1.04.187zm10.857 2.453v-14.64q0-1.68.56-2.667.56-.986 1.6-1.44 1.067-.453 2.48-.453h1.653v3.067h-1.12q-.853 0-1.226.346-.347.32-.347 1.147v14.64zm-1.84-10.427v-3.013h8.347v3.013zm17.17 10.427q-1.413 0-2.48-.427-1.04-.453-1.627-1.466-.586-1.04-.586-2.827v-5.707h-2.294v-3.013h2.294l.4-3.653h3.2v3.653h3.546v3.013h-3.546v5.76q0 .907.4 1.254.4.346 1.36.346h1.76v3.067zm18.27.32q-2.027 0-3.627-.693-1.573-.694-2.506-2.027-.907-1.333-.934-3.227h3.814q.026.827.426 1.494.4.666 1.094 1.066.72.374 1.706.374.854 0 1.467-.267.64-.293.987-.8.347-.507.346-1.2 0-.8-.4-1.333-.373-.534-1.066-.907-.667-.373-1.574-.667-.88-.32-1.866-.666-2.214-.72-3.387-1.92-1.147-1.2-1.147-3.174 0-1.68.8-2.88.827-1.2 2.267-1.84 1.44-.64 3.28-.64 1.893 0 3.307.667 1.44.64 2.266 1.867.854 1.226.88 2.88h-3.84q-.026-.614-.373-1.147-.32-.56-.907-.88-.586-.347-1.386-.347-.694-.026-1.28.214-.56.24-.907.72-.32.453-.32 1.146 0 .667.32 1.12.347.454.933.8.587.32 1.387.614.8.266 1.733.56 1.387.48 2.56 1.146 1.174.64 1.867 1.68.693 1.04.693 2.747 0 1.467-.773 2.72-.773 1.253-2.24 2.027-1.44.773-3.6.773zm16.05 0q-2.027 0-3.6-.853-1.547-.88-2.427-2.427-.853-1.573-.853-3.627 0-2.106.853-3.706.854-1.627 2.4-2.534 1.574-.933 3.627-.933 2 0 3.493.88 1.494.88 2.32 2.373.827 1.494.827 3.387v.613q0 .32-.053.667H182.05v-2.187h7.333q-.08-1.306-.933-2.053-.827-.747-2.08-.747-.907 0-1.68.427-.774.4-1.227 1.253-.427.854-.427 2.16v.774q0 1.093.4 1.92.427.8 1.174 1.253.746.427 1.733.427.987 0 1.627-.427.666-.427.986-1.093h3.68q-.373 1.253-1.253 2.266-.88 1.014-2.16 1.6-1.28.587-2.853.587zm9.6-.32v-13.44h3.2l.347 2.48q.48-.88 1.2-1.493.746-.614 1.68-.96.96-.347 2.106-.347v3.813h-1.226q-.8 0-1.494.187-.666.187-1.173.613-.507.4-.773 1.12-.267.72-.267 1.814v6.213zm14.51 0l-4.933-13.44h3.786l3.334 10.053L216 344.48h3.76l-4.907 13.44zm17.31.32q-2.027 0-3.6-.853-1.547-.88-2.427-2.427-.853-1.573-.853-3.627 0-2.106.853-3.706.854-1.627 2.4-2.534 1.574-.933 3.627-.933 2 0 3.493.88 1.494.88 2.32 2.373.827 1.494.827 3.387v.613q0 .32-.053.667H223.47v-2.187h7.333q-.08-1.306-.933-2.053-.827-.747-2.08-.747-.907 0-1.68.427-.774.4-1.227 1.253-.427.854-.427 2.16v.774q0 1.093.4 1.92.427.8 1.174 1.253.746.427 1.733.427.987 0 1.627-.427.666-.427.986-1.093h3.68q-.373 1.253-1.253 2.266-.88 1.014-2.16 1.6-1.28.586-2.853.587zm9.6-.32v-13.44h3.2l.347 2.48q.48-.88 1.2-1.493.746-.614 1.68-.96.96-.347 2.106-.347v3.813h-1.226q-.8 0-1.494.187-.666.187-1.173.613-.507.4-.773 1.12-.267.72-.267 1.814v6.213zm23.68.32q-2.027 0-3.627-.693-1.573-.694-2.506-2.027-.907-1.333-.934-3.227h3.814q.026.827.426 1.494.4.666 1.094 1.066.72.374 1.706.374.854 0 1.467-.267.64-.293.987-.8.347-.507.346-1.2 0-.8-.4-1.333-.373-.534-1.066-.907-.667-.373-1.574-.667-.88-.32-1.866-.666-2.214-.72-3.387-1.92-1.147-1.2-1.147-3.174 0-1.68.8-2.88.827-1.2 2.267-1.84 1.44-.64 3.28-.64 1.893 0 3.307.667 1.44.64 2.266 1.867.854 1.226.88 2.88h-3.84q-.026-.614-.373-1.147-.32-.56-.907-.88-.586-.347-1.386-.347-.694-.026-1.28.214-.56.24-.907.72-.32.453-.32 1.146 0 .667.32 1.12.347.454.933.8.587.32 1.387.614.8.266 1.733.56 1.387.48 2.56 1.146 1.174.64 1.867 1.68.693 1.04.693 2.747 0 1.467-.773 2.72-.773 1.253-2.24 2.027-1.44.773-3.6.773zm15.94 0q-1.92 0-3.467-.88-1.52-.907-2.426-2.48-.88-1.6-.88-3.653 0-2.107.88-3.68.906-1.6 2.453-2.48 1.547-.907 3.467-.907 1.946 0 3.466.907 1.547.88 2.427 2.48.907 1.573.907 3.653t-.907 3.68q-.88 1.573-2.427 2.48-1.546.88-3.493.88zm0-3.12q.907 0 1.6-.427.72-.426 1.12-1.306.427-.88.427-2.187t-.427-2.16q-.4-.88-1.12-1.307-.693-.453-1.573-.453-.854 0-1.574.453-.72.427-1.146 1.307-.4.853-.4 2.16 0 1.307.4 2.187.426.88 1.12 1.306.72.427 1.573.427zm10.54 2.8v-14.64q0-1.68.56-2.667.56-.986 1.6-1.44 1.067-.453 2.48-.453h1.653v3.067h-1.12q-.853 0-1.226.346-.347.32-.347 1.147v14.64zm-1.84-10.427v-3.013h8.347v3.013zm17.17 10.427q-1.413 0-2.48-.427-1.04-.453-1.627-1.466-.586-1.04-.586-2.827v-5.707h-2.294v-3.013h2.294l.4-3.653h3.2v3.653h3.546v3.013h-3.546v5.76q0 .907.4 1.254.4.346 1.36.346h1.76v3.067zm8.13 0l-3.947-13.44h3.547l2.613 10.907-.666-.027 2.986-10.88h4l2.987 10.88-.693.027 2.64-10.907h3.546l-3.946 13.44h-3.734l-3.173-11.2h.747l-3.174 11.2zm23.07.32q-1.68 0-2.773-.533-1.094-.56-1.627-1.467-.507-.933-.507-2.053 0-1.227.614-2.16.64-.934 1.893-1.467 1.28-.533 3.2-.533h3.333q0-.987-.266-1.627-.267-.667-.827-.987-.56-.32-1.493-.32-1.014 0-1.734.454-.693.426-.853 1.333h-3.493q.133-1.44.933-2.48.827-1.067 2.16-1.653 1.36-.587 3.013-.587 1.894 0 3.28.64t2.134 1.84q.748 1.2.746 2.96v8.32h-3.04l-.4-2.053q-.293.533-.693.96-.4.427-.933.746-.534.32-1.2.48-.667.187-1.467.187zm.853-2.773q.694 0 1.227-.24.56-.267.96-.694.4-.453.613-1.013.24-.587.32-1.253v-.027h-2.746q-.827 0-1.36.213-.507.187-.747.56-.24.374-.24.854 0 .533.24.88.24.346.693.533.454.187 1.04.187zm10.237 2.453v-13.44h3.2l.347 2.48q.48-.88 1.2-1.493.746-.614 1.68-.96.96-.347 2.106-.347v3.813h-1.226q-.8 0-1.494.187-.666.187-1.173.613-.507.4-.773 1.12-.267.72-.267 1.814v6.213zm17.15.32q-2.027 0-3.6-.853-1.547-.88-2.427-2.427-.853-1.573-.853-3.627 0-2.106.853-3.706.854-1.627 2.4-2.534 1.574-.933 3.627-.933 2 0 3.493.88 1.494.88 2.32 2.373.827 1.494.827 3.387v.613q0 .32-.053.667H358v-2.187h7.333q-.08-1.306-.933-2.053-.827-.747-2.08-.747-.907 0-1.68.427-.774.4-1.227 1.253-.427.854-.427 2.16v.774q0 1.093.4 1.92.427.8 1.174 1.253.746.427 1.733.427.987 0 1.627-.427.666-.427.986-1.093h3.68q-.373 1.253-1.253 2.266-.88 1.014-2.16 1.6-1.28.586-2.853.587zm15.09 0q-1.84 0-3.2-.587t-2.133-1.626q-.774-1.04-.88-2.347h3.573q.133.507.453.933.32.4.854.64.533.24 1.28.24.72 0 1.173-.186.453-.214.667-.56.24-.347.24-.72 0-.56-.32-.854-.32-.32-.934-.506-.613-.187-1.493-.374-.96-.186-1.893-.453-.907-.293-1.627-.72t-1.147-1.093q-.426-.667-.426-1.654 0-1.2.64-2.133.64-.96 1.866-1.52 1.227-.56 2.96-.56 2.427 0 3.84 1.093 1.414 1.094 1.68 3.014h-3.386q-.16-.614-.72-.96-.534-.374-1.44-.374-.96 0-1.467.347-.507.347-.507.907 0 .373.32.666.347.294.96.507.614.187 1.494.373 1.546.32 2.72.747 1.173.4 1.84 1.173.666.747.666 2.187 0 1.28-.693 2.293-.693.987-1.973 1.547-1.254.56-2.987.56zm15.04-.32v-18.667h12.16v2.907h-8.56v4.986h6.853v2.827h-6.853v7.947zm14.75 0v-13.44h3.2l.347 2.48q.48-.88 1.2-1.493.746-.614 1.68-.96.96-.347 2.106-.347v3.813h-1.226q-.8 0-1.494.187-.666.187-1.173.613-.507.4-.773 1.12-.267.72-.267 1.814v6.213zm17.04.32q-1.92 0-3.467-.88-1.52-.907-2.426-2.48-.88-1.6-.88-3.653 0-2.107.88-3.68.906-1.6 2.453-2.48 1.547-.907 3.467-.907 1.946 0 3.466.907 1.547.88 2.427 2.48.907 1.573.907 3.653t-.907 3.68q-.88 1.573-2.427 2.48-1.546.88-3.493.88zm0-3.12q.907 0 1.6-.427.72-.426 1.12-1.306.427-.88.427-2.187t-.427-2.16q-.4-.88-1.12-1.307-.693-.453-1.573-.453-.854 0-1.574.453-.72.427-1.146 1.307-.4.853-.4 2.16 0 1.307.4 2.187.426.88 1.12 1.306.72.427 1.573.427zm9.92 2.8v-13.44h3.173l.267 2.187q.613-1.12 1.733-1.814 1.147-.693 2.72-.693 1.68 0 2.827.693 1.147.694 1.733 2.027.614 1.333.614 3.28v7.76h-3.574v-7.413q0-1.6-.693-2.454-.667-.853-2.08-.853-.907 0-1.627.427-.693.426-1.093 1.227-.4.773-.4 1.893v7.173zm22.51 0q-1.413 0-2.48-.427-1.04-.453-1.627-1.466-.586-1.04-.586-2.827v-5.707h-2.294v-3.013h2.294l.4-3.653h3.2v3.653h3.546v3.013h-3.546v5.76q0 .907.4 1.254.4.346 1.36.346h1.76v3.067zm11.6.32q-2.027 0-3.6-.853-1.547-.88-2.427-2.427-.853-1.573-.853-3.627 0-2.106.853-3.706.854-1.627 2.4-2.534 1.574-.933 3.627-.933 2 0 3.493.88 1.494.88 2.32 2.373.827 1.494.827 3.387v.613q0 .32-.053.667H463.95v-2.187h7.333q-.08-1.306-.933-2.053-.827-.747-2.08-.747-.907 0-1.68.427-.774.4-1.227 1.253-.427.854-.427 2.16v.774q0 1.093.4 1.92.427.8 1.174 1.253.746.427 1.733.427.987 0 1.627-.427.666-.427.986-1.093h3.68q-.373 1.253-1.253 2.266-.88 1.014-2.16 1.6-1.28.586-2.853.587zm9.6-.32v-13.44h3.173l.267 2.187q.613-1.12 1.733-1.814 1.147-.693 2.72-.693 1.68 0 2.827.693 1.147.694 1.733 2.027.614 1.333.614 3.28v7.76h-3.574v-7.413q0-1.6-.693-2.454-.667-.853-2.08-.853-.907 0-1.627.427-.693.426-1.093 1.227-.4.773-.4 1.893v7.173zm22.42.32q-1.84 0-3.307-.907-1.44-.906-2.266-2.506-.827-1.6-.827-3.6 0-2.054.827-3.627.853-1.6 2.32-2.507 1.493-.933 3.333-.933 1.44 0 2.533.533 1.094.534 1.76 1.52v-7.493h3.6v19.2h-3.2l-.4-1.84q-.4.56-1.013 1.067-.587.506-1.413.8-.827.293-1.947.293zm.853-3.147q1.067 0 1.867-.48.827-.506 1.28-1.386.453-.88.453-2.027 0-1.147-.453-2.027-.453-.88-1.28-1.36-.8-.506-1.867-.506-1.013 0-1.84.506-.826.48-1.306 1.36-.454.88-.454 2 0 1.173.454 2.053.48.88 1.28 1.387.826.48 1.866.48z" fill="url(#prefix__c)" transform="matrix(.4182 0 0 .4182 -12.557 -141.598)" aria-label="Minecraft Server Softwares Frontend"/></svg>
